<?xml version="1.0" encoding="UTF-8" standalone="no"?>
<svg version="1.1" xmlns="http://www.w3.org/2000/svg" viewBox="0 0 1024 1024"><path d="M980.152 934.368l-189.747-189.747c60.293-73.196 90.614-163 90.552-252.58 0.061-101.755-38.953-203.848-116.603-281.498-77.629-77.67-179.732-116.664-281.446-116.603-101.765-0.061-203.848 38.932-281.477 116.603-77.65 77.629-116.664 179.743-116.623 281.467-0.041 101.755 38.973 203.848 116.623 281.436 77.629 77.64 179.722 116.654 281.477 116.593 89.569 0.061 179.395-30.249 252.58-90.501l189.737 189.757 54.927-54.927zM256.358 718.519c-62.669-62.659-93.839-144.394-93.86-226.509 0.020-82.094 31.191-163.85 93.86-226.54 62.669-62.638 144.425-93.809 226.55-93.839 82.084 0.031 163.84 31.201 226.509 93.839 62.638 62.659 93.809 144.445 93.829 226.57-0.020 82.094-31.191 163.84-93.829 226.478-62.669 62.628-144.404 93.798-226.509 93.829-82.125-0.020-163.881-31.191-226.55-93.829z"></path></svg>